# xmcd CD database file
#
# Track frame offsets:
#	150
#	14330
#	25782
#	39405
#	50787
#	59052
#	72731
#	86317
#	100869
#	131340
#	142197
#	154942
#	172709
#	187471
#	199539
#	210401
#	226094
#	240457
#
# Disc length: 3386 seconds
#
# Revision: 0
# Processed by: cddbd v1.5.2PL0 Copyright (c) Steve Scherf et al.
# Submitted via: CDex 1.51
#
DISCID=f90d3812
DTITLE=Various Artist - All That Jazz cd2
DYEAR=2005
DGENRE=Jazz
TTITLE0=Johnny Mercer - One for my baby (and one for the road)
TTITLE1=Pia Beck trio - Botch a me
TTITLE2=Charlie Parker - Why do I love you
TTITLE3=Frank Sinatra - Don't ever be afraid to go home
TTITLE4=Kay starr - I've got the world on a string
TTITLE5=Laurindo Almeida and Bud shank - stairway to the stars
TTITLE6=Bud powell - i should care
TTITLE7=mel tormé - it's too late now
TTITLE8=art blakey and the jazz messengers - doodlin'
TTITLE9=alma cogan - make love to me
TTITLE10=frank sinatra - south of the border
TTITLE11=ahmad jamal - perfidia
TTITLE12=doris day - please don't talk about me when i'm gone
TTITLE13=Nat 'king' cole - walkin' my baby back home
TTITLE14=jo stafford - the best things in life are free
TTITLE15=chet baker - pro defunctus
TTITLE16=miles davis - godchild
TTITLE17=dinah washington and walter rodell orchestra - mad about the boy
EXTD=YEAR: 2005
EXTT0=
EXTT1=
EXTT2=
EXTT3=
EXTT4=
EXTT5=
EXTT6=
EXTT7=
EXTT8=
EXTT9=
EXTT10=
EXTT11=
EXTT12=
EXTT13=
EXTT14=
EXTT15=
EXTT16=
EXTT17=
PLAYORDER=
